<mxfile host="app.diagrams.net" modified="2024-02-02T02:53:02.980Z" agent="Mozilla/5.0 (Windows NT 10.0; Win64; x64) AppleWebKit/537.36 (KHTML, like Gecko) Chrome/120.0.0.0 Safari/537.36" version="23.1.1" etag="_t-j69I1P--3Vf0VHzTQ" type="github">
  <diagram name="Halaman-1" id="ytWgXJUd_9RBOzKaZVbG">
    <mxGraphModel>
      <root>
        <mxCell id="0" />
        <mxCell id="1" parent="0" />
      </root>
    </mxGraphModel>
  </diagram>
</mxfile>
